<?xml version="1.0" encoding="utf-8"?>
<!-- Generator: Adobe Illustrator 19.0.0, SVG Export Plug-In . SVG Version: 6.00 Build 0)  -->
<svg version="1.1" id="Layer_1" xmlns="http://www.w3.org/2000/svg" xmlns:xlink="http://www.w3.org/1999/xlink" x="0px" y="0px"
	 viewBox="40 33 512 512" style="enable-background:new 40 33 512 512;" xml:space="preserve">
<style type="text/css">
	.st0{fill:#B6CCDD;}
</style>
<g>
	<g>
		<path class="st0" d="M296,33c-24.8,0-45,20.2-45,45v181c0,24.8,20.2,45,45,45s45-20.2,45-45V78C341,53.2,320.8,33,296,33z"/>
	</g>
</g>
<g>
	<g>
		<path class="st0" d="M446.6,152c-18.9-17.1-46.5-15.1-63,1.9c-16.6,17.1-17.9,46.1,3.2,65.3c33.4,30.4,50.3,76.5,42.3,122.9
			c-10.9,63.1-65.7,112.8-133,112.9c-69,0.2-121.8-50.8-132.7-110.6c-8.5-46.7,7.2-93.6,42-125.2c21-19.1,19.9-48.2,3.2-65.4
			c-16.6-17-44.3-18.9-63.4-1.6C92.2,200.2,64.6,271,72.3,342.8C84.5,457,180.9,545,296.6,545c114.3,0,207.9-88.2,222.4-194.7
			C529,276,502,201.9,446.6,152z"/>
	</g>
</g>
</svg>
